<?xml version="1.0" encoding="utf-8"?>
<!-- Generator: Adobe Illustrator 16.0.0, SVG Export Plug-In . SVG Version: 6.00 Build 0)  -->
<!DOCTYPE svg PUBLIC "-//W3C//DTD SVG 1.1//EN" "http://www.w3.org/Graphics/SVG/1.1/DTD/svg11.dtd">
<svg version="1.1" id="Layer_1" xmlns="http://www.w3.org/2000/svg" xmlns:xlink="http://www.w3.org/1999/xlink" x="0px" y="0px"
	 width="84.272px" height="49.145px" viewBox="0 0 84.272 49.145" enable-background="new 0 0 84.272 49.145" xml:space="preserve">
<g>
	<path fill="#FFFFFF" d="M0,24.572c0,1.936,1.574,3.509,3.51,3.509h68.783L57.218,43.156c-1.367,1.368-1.367,3.596,0,4.963
		c1.366,1.367,3.594,1.367,4.962,0l21.068-21.07c0.328-0.326,0.586-0.705,0.759-1.135c0.172-0.43,0.266-0.877,0.266-1.324
		c0-0.009,0-0.009,0-0.018l0,0c0-0.456-0.094-0.912-0.274-1.342c-0.172-0.43-0.438-0.817-0.756-1.135l-21.07-21.07
		c-1.367-1.367-3.596-1.367-4.963,0c-1.367,1.368-1.367,3.595,0,4.962l15.076,15.076H3.511C1.574,21.063,0,22.637,0,24.572z"/>
</g>
</svg>
